<?xml version="1.0" encoding="UTF-8"?>
<!--Generator: Apple Native CoreSVG 175.5-->
<!DOCTYPE svg
PUBLIC "-//W3C//DTD SVG 1.1//EN"
       "http://www.w3.org/Graphics/SVG/1.1/DTD/svg11.dtd">
<svg version="1.1" xmlns="http://www.w3.org/2000/svg" xmlns:xlink="http://www.w3.org/1999/xlink" width="39.8438" height="39.8633">
 <g>
  <rect height="39.8633" opacity="0" width="39.8438" x="0" y="0"/>
  <path d="M3.33984 19.9219C3.33984 18.1445 3.61328 16.4258 4.12109 14.8438L1.05469 13.5547C0.390625 15.5664 0 17.6953 0 19.9219C0 22.1289 0.390625 24.2773 1.07422 26.2891L4.12109 25C3.61328 23.418 3.33984 21.6992 3.33984 19.9219ZM12.3242 5.11719L11.0742 2.10938C7.20703 4.04297 4.02344 7.22656 2.08984 11.0938L5.13672 12.3633C6.69922 9.25781 9.23828 6.71875 12.3242 5.11719ZM19.9023 3.32031C21.6797 3.32031 23.3984 3.59375 25.0195 4.12109L26.2695 1.07422C24.2578 0.390625 22.1094 0 19.9023 0C17.6953 0 15.5273 0.390625 13.5156 1.07422L14.8047 4.12109C16.4062 3.59375 18.125 3.32031 19.9023 3.32031ZM34.707 12.3438L37.7344 11.0938C35.7812 7.22656 32.5977 4.04297 28.7305 2.08984L27.4805 5.11719C30.5664 6.69922 33.125 9.23828 34.707 12.3438ZM36.5234 19.9219C36.5234 21.6992 36.25 23.418 35.7422 25.0195L38.7695 26.3086C39.4531 24.2969 39.8438 22.1289 39.8438 19.9219C39.8438 17.6953 39.4531 15.5469 38.7695 13.5352L35.7227 14.8242C36.25 16.4258 36.5234 18.1445 36.5234 19.9219ZM19.9219 39.8438C27.5781 39.8438 34.4141 35.332 37.7344 28.75L34.707 27.5C34.0234 28.7891 33.2227 29.9805 32.2656 31.0352C30.3125 28.7305 25.8203 26.5625 19.9219 26.5625C14.0234 26.5625 9.53125 28.7305 7.57812 31.0352C6.64062 29.9609 5.80078 28.7891 5.13672 27.5L2.10938 28.75C5.42969 35.332 12.2656 39.8438 19.9219 39.8438ZM19.9219 23.2422C23.6719 23.2812 26.6211 20.0781 26.6211 15.8789C26.6211 11.9336 23.6719 8.67188 19.9219 8.67188C16.1719 8.67188 13.2031 11.9336 13.2227 15.8789C13.2422 20.0781 16.1719 23.2031 19.9219 23.2422Z" fill="#ffffff" fill-opacity="0.85"/>
 </g>
</svg>
